<svg width="38" height="36" viewBox="0 0 38 36" fill="none" xmlns="http://www.w3.org/2000/svg">
<path d="M30.0011 13.1171C34.1439 13.1171 37.5024 16.4756 37.5024 20.6182C37.5024 22.5215 36.7935 24.2593 35.6256 25.5817L35.6254 34.2084C35.6254 35.2787 34.4919 35.9323 33.5814 35.4626L33.4136 35.3612L30.0006 32.9756L26.5886 35.3612C25.7113 35.9741 24.5263 35.4195 24.39 34.404L24.3771 34.2084L24.3752 25.5799C23.2082 24.2576 22.5 22.5206 22.5 20.6182C22.5 16.4756 25.8583 13.1171 30.0011 13.1171ZM32.8114 27.5754C31.9434 27.9262 30.9949 28.1195 30.0011 28.1195C29.0061 28.1195 28.0562 27.9257 27.1873 27.5739L27.1881 31.5094L29.1958 30.1085C29.619 29.8129 30.1646 29.7759 30.6184 29.9977L30.8066 30.1085L32.8112 31.5094L32.8114 27.5754ZM32.3438 0C35.0859 0 37.3283 2.14069 37.4906 4.84213L37.5 5.15625L37.5026 14.9923C36.7446 13.9832 35.7876 13.1319 34.6899 12.4968L34.6875 5.15625C34.6875 3.94273 33.7652 2.94461 32.5834 2.82459L32.3438 2.8125H5.15625C3.94273 2.8125 2.94463 3.73476 2.82459 4.91661L2.8125 5.15625V22.9687C2.8125 24.1822 3.73476 25.1803 4.91661 25.3005L5.15625 25.3125L21.8843 25.3147L22.1166 25.6944L22.3671 26.0632L22.5 26.2384L22.4981 28.125H5.15625C2.41401 28.125 0.17175 25.9843 0.00941232 23.2828L0 22.9687V5.15625C0 2.41399 2.14069 0.171731 4.84215 0.00939354L5.15625 0H32.3438ZM30.0011 15.9296C27.4118 15.9296 25.3125 18.0289 25.3125 20.6182C25.3125 23.2078 27.4118 25.307 30.0011 25.307C32.5907 25.307 34.6899 23.2078 34.6899 20.6182C34.6899 18.0289 32.5907 15.9296 30.0011 15.9296ZM17.3438 17.8046C18.1204 17.8046 18.75 18.4342 18.75 19.2109C18.75 19.9228 18.2209 20.5112 17.5346 20.6044L17.3438 20.6171H8.90625C8.12961 20.6171 7.5 19.9875 7.5 19.2109C7.5 18.4989 8.02903 17.9105 8.71543 17.8174L8.90625 17.8046H17.3438ZM28.5938 7.49211C29.3704 7.49211 30 8.12171 30 8.89836C30 9.61029 29.4709 10.1986 28.7846 10.2918L28.5938 10.3046H8.90625C8.12961 10.3046 7.5 9.67502 7.5 8.89836C7.5 8.18644 8.02903 7.59806 8.71543 7.50495L8.90625 7.49211H28.5938Z" fill="white"/>
</svg>
